<svg xmlns="http://www.w3.org/2000/svg" xmlns:xlink="http://www.w3.org/1999/xlink" width="187.69pt" height="128.9pt" viewBox="0 0 187.69 128.9" version="1.1">
<g id="surface1">
<path style=" stroke:none;fill-rule:nonzero;fill:rgb(100%,100%,100%);fill-opacity:1;" d="M 86.164062 13.65625 C 86.164062 20.328125 83.492188 23.550781 77.613281 23.550781 C 71.367188 23.550781 69.105469 19.8125 69.105469 11.789062 C 69.105469 3.699219 71.328125 -0.00390625 77.738281 -0.00390625 C 82.09375 -0.00390625 84.726562 1.605469 85.710938 4.828125 L 82.21875 6.152344 C 81.644531 3.925781 80.203125 2.828125 77.777344 2.828125 C 74.039062 2.828125 73.09375 5.636719 73.09375 11.726562 C 73.09375 17.847656 74.078125 20.617188 77.777344 20.617188 C 80.863281 20.617188 82.382812 18.621094 82.382812 14.722656 C 82.382812 14.367188 82.382812 14.011719 82.34375 13.625 L 78.148438 13.625 L 78.148438 10.917969 L 86.039062 10.917969 C 86.121094 11.886719 86.164062 12.820312 86.164062 13.65625 "/>
<path style=" stroke:none;fill-rule:nonzero;fill:rgb(100%,100%,100%);fill-opacity:1;" d="M 95.457031 10.273438 C 98.867188 10.273438 99.851562 9.082031 99.851562 6.277344 C 99.851562 3.667969 98.621094 2.992188 95.332031 2.992188 L 94.222656 2.992188 L 94.222656 10.273438 Z M 94.222656 23.261719 L 90.277344 23.261719 L 90.277344 0.285156 L 95.046875 0.285156 C 101.167969 0.285156 103.839844 1.832031 103.839844 6.277344 C 103.839844 9.695312 101.992188 11.59375 98.332031 11.949219 L 105.277344 23.261719 L 101.042969 23.261719 L 94.34375 12.046875 L 94.222656 12.046875 L 94.222656 23.261719 "/>
<path style=" stroke:none;fill-rule:nonzero;fill:rgb(100%,100%,100%);fill-opacity:1;" d="M 108.035156 0.285156 L 119.75 0.285156 L 119.75 3.058594 L 111.980469 3.058594 L 111.980469 9.886719 L 119.089844 9.886719 L 119.089844 12.628906 L 111.980469 12.628906 L 111.980469 20.394531 L 119.75 20.394531 L 119.75 23.261719 L 108.035156 23.261719 L 108.035156 0.285156 "/>
<path style=" stroke:none;fill-rule:nonzero;fill:rgb(100%,100%,100%);fill-opacity:1;" d="M 127.726562 16.171875 L 132.984375 16.171875 L 130.355469 6.214844 Z M 128.503906 0.285156 L 132.203125 0.285156 L 139.070312 23.261719 L 135.082031 23.261719 L 133.683594 18.746094 L 126.984375 18.746094 L 125.628906 23.261719 L 121.640625 23.261719 L 128.503906 0.285156 "/>
<path style=" stroke:none;fill-rule:nonzero;fill:rgb(100%,100%,100%);fill-opacity:1;" d="M 144.089844 3.152344 L 138.667969 3.152344 L 138.667969 0.285156 L 153.503906 0.285156 L 153.503906 3.152344 L 148.078125 3.152344 L 148.078125 23.261719 L 144.089844 23.261719 L 144.089844 3.152344 "/>
<path style=" stroke:none;fill-rule:nonzero;fill:rgb(100%,100%,100%);fill-opacity:1;" d="M 156.425781 0.285156 L 168.140625 0.285156 L 168.140625 3.058594 L 160.367188 3.058594 L 160.367188 9.886719 L 167.480469 9.886719 L 167.480469 12.628906 L 160.367188 12.628906 L 160.367188 20.394531 L 168.140625 20.394531 L 168.140625 23.261719 L 156.425781 23.261719 L 156.425781 0.285156 "/>
<path style=" stroke:none;fill-rule:nonzero;fill:rgb(100%,100%,100%);fill-opacity:1;" d="M 177.511719 10.273438 C 180.921875 10.273438 181.90625 9.082031 181.90625 6.277344 C 181.90625 3.667969 180.675781 2.992188 177.386719 2.992188 L 176.277344 2.992188 L 176.277344 10.273438 Z M 176.277344 23.261719 L 172.332031 23.261719 L 172.332031 0.285156 L 177.101562 0.285156 C 183.222656 0.285156 185.894531 1.832031 185.894531 6.277344 C 185.894531 9.695312 184.046875 11.597656 180.386719 11.949219 L 187.332031 23.261719 L 183.097656 23.261719 L 176.398438 12.046875 L 176.277344 12.046875 L 176.277344 23.261719 "/>
<path style=" stroke:none;fill-rule:nonzero;fill:rgb(100%,100%,100%);fill-opacity:1;" d="M 73.296875 32.695312 L 69.074219 32.695312 L 69.074219 29.828125 L 80.628906 29.828125 L 80.628906 32.695312 L 76.40625 32.695312 L 76.40625 52.800781 L 73.296875 52.800781 L 73.296875 32.695312 "/>
<path style=" stroke:none;fill-rule:nonzero;fill:rgb(100%,100%,100%);fill-opacity:1;" d="M 88.265625 50.160156 C 90.984375 50.160156 91.59375 47.292969 91.59375 41.265625 C 91.59375 35.238281 90.886719 32.40625 88.234375 32.40625 C 85.578125 32.40625 84.839844 35.238281 84.839844 41.265625 C 84.839844 47.324219 85.640625 50.160156 88.265625 50.160156 M 88.234375 29.535156 C 93.035156 29.535156 94.699219 33.273438 94.699219 41.332031 C 94.699219 49.355469 93.035156 53.09375 88.234375 53.09375 C 83.429688 53.09375 81.734375 49.386719 81.734375 41.332031 C 81.734375 33.273438 83.429688 29.535156 88.234375 29.535156 "/>
<path style=" stroke:none;fill-rule:nonzero;fill:rgb(100%,100%,100%);fill-opacity:1;" d="M 102.160156 39.816406 C 104.816406 39.816406 105.585938 38.625 105.585938 35.820312 C 105.585938 33.210938 104.621094 32.535156 102.066406 32.535156 L 101.199219 32.535156 L 101.199219 39.816406 Z M 101.199219 52.800781 L 98.125 52.800781 L 98.125 29.828125 L 101.839844 29.828125 C 106.609375 29.828125 108.695312 31.375 108.695312 35.820312 C 108.695312 39.234375 107.246094 41.136719 104.402344 41.492188 L 109.8125 52.800781 L 106.511719 52.800781 L 101.296875 41.589844 L 101.199219 41.589844 L 101.199219 52.800781 "/>
<path style=" stroke:none;fill-rule:nonzero;fill:rgb(100%,100%,100%);fill-opacity:1;" d="M 117.914062 50.160156 C 120.636719 50.160156 121.246094 47.292969 121.246094 41.265625 C 121.246094 35.238281 120.539062 32.40625 117.882812 32.40625 C 115.226562 32.40625 114.488281 35.238281 114.488281 41.265625 C 114.488281 47.324219 115.289062 50.160156 117.914062 50.160156 M 117.882812 29.535156 C 122.683594 29.535156 124.347656 33.273438 124.347656 41.332031 C 124.347656 49.355469 122.683594 53.09375 117.882812 53.09375 C 113.082031 53.09375 111.382812 49.386719 111.382812 41.332031 C 111.382812 33.273438 113.082031 29.535156 117.882812 29.535156 "/>
<path style=" stroke:none;fill-rule:nonzero;fill:rgb(100%,100%,100%);fill-opacity:1;" d="M 127.742188 29.828125 L 130.59375 29.828125 L 136.644531 45.777344 L 136.644531 29.828125 L 139.558594 29.828125 L 139.558594 52.800781 L 136.675781 52.800781 L 130.65625 36.722656 L 130.65625 52.800781 L 127.742188 52.800781 L 127.742188 29.828125 "/>
<path style=" stroke:none;fill-rule:nonzero;fill:rgb(100%,100%,100%);fill-opacity:1;" d="M 146.121094 32.695312 L 141.898438 32.695312 L 141.898438 29.828125 L 153.453125 29.828125 L 153.453125 32.695312 L 149.230469 32.695312 L 149.230469 52.800781 L 146.121094 52.800781 L 146.121094 32.695312 "/>
<path style=" stroke:none;fill-rule:nonzero;fill:rgb(100%,100%,100%);fill-opacity:1;" d="M 161.089844 50.160156 C 163.808594 50.160156 164.417969 47.292969 164.417969 41.265625 C 164.417969 35.238281 163.714844 32.40625 161.058594 32.40625 C 158.398438 32.40625 157.664062 35.238281 157.664062 41.265625 C 157.664062 47.324219 158.464844 50.160156 161.089844 50.160156 M 161.058594 29.535156 C 165.859375 29.535156 167.523438 33.273438 167.523438 41.332031 C 167.523438 49.355469 165.859375 53.09375 161.058594 53.09375 C 156.253906 53.09375 154.558594 49.386719 154.558594 41.332031 C 154.558594 33.273438 156.253906 29.535156 161.058594 29.535156 "/>
<path style=" stroke:none;fill-rule:nonzero;fill:rgb(100%,100%,100%);fill-opacity:1;" d="M 172.113281 37.207031 L 170.542969 36.753906 L 172.628906 28.410156 L 175.027344 29.152344 L 172.113281 37.207031 "/>
<path style=" stroke:none;fill-rule:nonzero;fill:rgb(100%,100%,100%);fill-opacity:1;" d="M 181.304688 50.09375 C 183.1875 50.09375 184.375 48.902344 184.375 47.066406 C 184.375 44.84375 182.871094 43.8125 180.628906 41.945312 C 178.261719 39.976562 176.980469 38.269531 176.980469 35.59375 C 176.980469 32.050781 179.507812 29.539062 182.679688 29.539062 C 184.089844 29.539062 185.367188 29.859375 186.679688 30.570312 L 186.679688 33.660156 C 185.496094 32.824219 184.375 32.40625 183.253906 32.40625 C 181.304688 32.40625 180.054688 33.660156 180.054688 35.5625 C 180.054688 37.691406 181.621094 38.785156 183.894531 40.621094 C 186.359375 42.621094 187.484375 44.359375 187.484375 47.035156 C 187.484375 50.480469 185.082031 53.09375 181.527344 53.09375 C 180.246094 53.09375 178.933594 52.707031 177.558594 51.933594 L 177.558594 48.773438 C 178.964844 49.644531 180.183594 50.09375 181.304688 50.09375 "/>
<path style=" stroke:none;fill-rule:nonzero;fill:rgb(100%,100%,100%);fill-opacity:1;" d="M 73.039062 63.621094 L 69.050781 63.621094 L 69.050781 59.371094 L 82.261719 59.371094 L 82.261719 63.621094 L 78.273438 63.621094 L 78.273438 82.34375 L 73.039062 82.34375 L 73.039062 63.621094 "/>
<path style=" stroke:none;fill-rule:nonzero;fill:rgb(100%,100%,100%);fill-opacity:1;" d="M 96.40625 70.871094 C 96.40625 65.910156 95.089844 63.460938 92.417969 63.460938 C 89.746094 63.460938 88.464844 65.910156 88.464844 70.871094 C 88.464844 75.800781 89.746094 78.25 92.417969 78.25 C 95.089844 78.25 96.40625 75.800781 96.40625 70.871094 M 92.417969 82.632812 C 86.707031 82.632812 83.269531 78.316406 83.269531 70.871094 C 83.269531 63.367188 86.855469 59.078125 92.417969 59.078125 C 98.019531 59.078125 101.605469 63.429688 101.605469 71.195312 C 101.605469 78.316406 97.910156 82.632812 92.417969 82.632812 "/>
<path style=" stroke:none;fill-rule:nonzero;fill:rgb(100%,100%,100%);fill-opacity:1;" d="M 110.429688 69.359375 C 112.621094 69.359375 113.828125 68.230469 113.828125 66.101562 C 113.828125 63.945312 112.769531 62.914062 110.429688 62.914062 C 110.246094 62.914062 110.0625 62.945312 109.878906 62.945312 L 109.878906 69.324219 C 110.0625 69.324219 110.246094 69.359375 110.429688 69.359375 M 104.828125 59.371094 L 110.246094 59.371094 C 115.953125 59.371094 118.738281 61.496094 118.738281 66.039062 C 118.738281 70.355469 115.917969 72.835938 111.050781 72.835938 C 110.683594 72.835938 110.285156 72.835938 109.878906 72.804688 L 109.878906 82.34375 L 104.828125 82.34375 L 104.828125 59.371094 "/>
<path style=" stroke:none;fill-rule:nonzero;fill:rgb(100%,100%,100%);fill-opacity:1;" d="M 69.09375 88.910156 L 78.003906 88.910156 L 78.003906 93.160156 L 73.191406 93.160156 L 73.191406 97.804688 L 77.554688 97.804688 L 77.554688 102.027344 L 73.191406 102.027344 L 73.191406 107.40625 L 78.003906 107.40625 L 78.003906 111.886719 L 69.09375 111.886719 L 69.09375 88.910156 "/>
<path style=" stroke:none;fill-rule:nonzero;fill:rgb(100%,100%,100%);fill-opacity:1;" d="M 81.890625 88.910156 L 87.324219 88.910156 L 88.425781 97.675781 C 88.71875 100.121094 88.960938 102.570312 89.105469 105.085938 C 89.433594 101.351562 89.671875 98.898438 89.847656 97.675781 L 91.214844 88.910156 L 96.589844 88.910156 L 98.371094 111.886719 L 94.09375 111.886719 L 93.648438 101.21875 C 93.5625 99.09375 93.410156 96.449219 93.410156 93.226562 L 90.652344 111.886719 L 87.59375 111.886719 L 85.011719 93.097656 C 85.011719 96 84.800781 98.707031 84.65625 101.285156 L 84 111.886719 L 79.8125 111.886719 L 81.890625 88.910156 "/>
<path style=" stroke:none;fill-rule:nonzero;fill:rgb(100%,100%,100%);fill-opacity:1;" d="M 105.203125 98.898438 C 106.984375 98.898438 107.964844 97.769531 107.964844 95.648438 C 107.964844 93.484375 107.101562 92.453125 105.203125 92.453125 C 105.054688 92.453125 104.90625 92.488281 104.757812 92.488281 L 104.757812 98.867188 C 104.90625 98.867188 105.054688 98.898438 105.203125 98.898438 M 100.660156 88.910156 L 105.054688 88.910156 C 109.6875 88.910156 111.941406 91.039062 111.941406 95.582031 C 111.941406 99.898438 109.65625 102.378906 105.707031 102.378906 C 105.410156 102.378906 105.082031 102.378906 104.757812 102.347656 L 104.757812 111.882812 L 100.660156 111.882812 L 100.660156 88.910156 "/>
<path style=" stroke:none;fill-rule:nonzero;fill:rgb(100%,100%,100%);fill-opacity:1;" d="M 114.171875 88.910156 L 118.359375 88.910156 L 118.359375 107.40625 L 123.164062 107.40625 L 123.164062 111.886719 L 114.171875 111.886719 L 114.171875 88.910156 "/>
<path style=" stroke:none;fill-rule:nonzero;fill:rgb(100%,100%,100%);fill-opacity:1;" d="M 134.777344 100.414062 C 134.777344 95.449219 133.707031 93.003906 131.539062 93.003906 C 129.375 93.003906 128.335938 95.449219 128.335938 100.414062 C 128.335938 105.34375 129.375 107.792969 131.539062 107.792969 C 133.707031 107.792969 134.777344 105.34375 134.777344 100.414062 M 131.539062 112.175781 C 126.910156 112.175781 124.117188 107.855469 124.117188 100.414062 C 124.117188 92.90625 127.027344 88.621094 131.539062 88.621094 C 136.085938 88.621094 138.996094 92.96875 138.996094 100.734375 C 138.996094 107.855469 135.996094 112.175781 131.539062 112.175781 "/>
<path style=" stroke:none;fill-rule:nonzero;fill:rgb(100%,100%,100%);fill-opacity:1;" d="M 143.628906 101.089844 L 138.726562 88.910156 L 143.183594 88.910156 L 144.578125 93.066406 C 145.113281 94.644531 145.527344 96.09375 145.882812 97.546875 C 146.300781 95.613281 146.714844 94.195312 147.070312 93.195312 L 148.613281 88.910156 L 152.742188 88.910156 L 147.8125 101.089844 L 147.8125 111.886719 L 143.628906 111.886719 L 143.628906 101.089844 "/>
<path style=" stroke:none;fill-rule:nonzero;fill:rgb(100%,100%,100%);fill-opacity:1;" d="M 153.21875 88.910156 L 162.128906 88.910156 L 162.128906 93.164062 L 157.316406 93.164062 L 157.316406 97.804688 L 161.679688 97.804688 L 161.679688 102.027344 L 157.316406 102.027344 L 157.316406 107.40625 L 162.128906 107.40625 L 162.128906 111.886719 L 153.21875 111.886719 L 153.21875 88.910156 "/>
<path style=" stroke:none;fill-rule:nonzero;fill:rgb(100%,100%,100%);fill-opacity:1;" d="M 169.550781 98.898438 C 171.359375 98.898438 172.3125 97.804688 172.3125 95.613281 C 172.3125 93.421875 171.507812 92.453125 169.640625 92.453125 C 169.460938 92.453125 169.285156 92.453125 169.074219 92.488281 L 169.074219 98.867188 C 169.222656 98.867188 169.398438 98.898438 169.550781 98.898438 M 164.980469 88.910156 L 169.371094 88.910156 C 174.066406 88.910156 176.261719 90.746094 176.261719 95.386719 C 176.261719 98.609375 175.195312 100.605469 172.90625 101.414062 L 176.972656 111.882812 L 172.519531 111.882812 L 169.074219 102.347656 L 169.074219 111.882812 L 164.980469 111.882812 L 164.980469 88.910156 "/>
<path style=" stroke:none;fill-rule:nonzero;fill:rgb(100%,100%,100%);fill-opacity:1;" d="M 177.953125 106.308594 C 178.996094 107.308594 180.003906 107.824219 181.070312 107.824219 C 182.527344 107.824219 183.386719 106.921875 183.386719 105.539062 C 183.386719 103.925781 182.261719 103.28125 181.011719 102.058594 C 178.785156 99.863281 177.628906 98.125 177.628906 95.257812 C 177.628906 91.296875 179.882812 88.621094 183.210938 88.621094 C 184.425781 88.621094 185.554688 89.007812 186.773438 89.746094 L 186.773438 93.808594 C 185.554688 93.164062 184.695312 92.777344 183.953125 92.777344 C 182.734375 92.777344 181.871094 93.679688 181.871094 95.03125 C 181.871094 96.613281 182.855469 97.546875 184.339844 98.929688 C 186.414062 100.863281 187.695312 102.1875 187.695312 105.410156 C 187.695312 109.53125 185.40625 112.175781 181.605469 112.175781 C 180.183594 112.175781 178.996094 111.820312 177.953125 111.082031 L 177.953125 106.308594 "/>
<path style=" stroke:none;fill-rule:nonzero;fill:rgb(100%,100%,100%);fill-opacity:1;" d="M 29.800781 32.097656 C 30 32.097656 30.101562 32 30.199219 32 C 30.199219 32 30 32.097656 29.800781 32.097656 "/>
<path style=" stroke:none;fill-rule:nonzero;fill:rgb(100%,100%,100%);fill-opacity:1;" d="M 40.800781 83.097656 L 34.601562 121.800781 Z M 40.800781 83.097656 "/>
<path style=" stroke:none;fill-rule:nonzero;fill:rgb(100%,100%,100%);fill-opacity:1;" d="M 26 44.699219 C 25.601562 44.597656 25.101562 44.300781 24.699219 44.597656 C 24.300781 44.898438 24.601562 45.898438 24.601562 46.199219 C 24.699219 46.5 24.699219 47.398438 24.800781 47.597656 C 24.800781 47.898438 25 48.199219 25.398438 48.898438 C 25.800781 49.597656 26.601562 50 26.601562 50 C 26.199219 50 25.601562 49.699219 25.101562 49.300781 C 24.601562 48.898438 24.101562 48.597656 23.800781 48.398438 C 23.5 48.199219 22.898438 47.898438 22.300781 47.699219 C 21.800781 47.398438 22 48.800781 22 48.800781 C 21.800781 47.898438 20.699219 46.300781 20.199219 45.898438 C 19.699219 45.5 19.398438 46 19.398438 46 C 18.398438 46.597656 18.5 48.199219 18.5 48.199219 C 18.199219 47.898438 18.300781 47.398438 18.300781 47 C 18.398438 46.597656 18.300781 46.398438 18.300781 46 C 18.300781 45.597656 18.199219 45.300781 18.199219 44.898438 C 18.101562 44.5 18.199219 44.597656 18.300781 44.097656 C 18.398438 43.597656 18.300781 43.800781 18.300781 43.800781 C 21.101562 35.597656 28 32.898438 29.800781 32.300781 C 16.101562 36.199219 16.300781 52.300781 16.300781 52.300781 L 15.898438 52.300781 C 15.800781 47.699219 18 42.800781 18 42.800781 L 17.800781 43.097656 C 17.800781 43.097656 17.5 43.398438 17.300781 43.597656 C 17.101562 43.699219 16.699219 43.898438 16.398438 44.097656 C 16.101562 44.300781 16 44.5 15.601562 44.800781 C 15.199219 45.097656 14.800781 45.699219 14.800781 45.699219 C 14.800781 45.699219 15.199219 44.699219 15.398438 44.097656 C 15.601562 43.5 15.398438 43.699219 15.5 42.898438 C 15.601562 42.097656 15.199219 42.199219 14.601562 41.699219 C 14.101562 41.199219 13 41.199219 13 41.199219 C 13.5 40.898438 13.398438 40.5 13.398438 40.097656 C 13.398438 39.699219 13 39.5 12.699219 39.097656 C 12.398438 38.699219 11.898438 38.199219 11.5 38 C 11.101562 37.800781 10.699219 37.097656 10.699219 37.097656 C 10.699219 37.097656 11 37.300781 11.199219 37.398438 C 11.398438 37.5 12.101562 37.5 12.398438 37.5 C 12.699219 37.5 14.5 37.199219 15 37 C 15.5 36.800781 15.5 35.800781 15.5 35.097656 C 15.5 34.398438 15.101562 34 14.898438 33.597656 C 14.699219 33.199219 14.898438 33.300781 14.898438 33.300781 C 15.398438 33.898438 16.300781 33.597656 17 32.800781 C 17.699219 32 17.398438 31.597656 17.398438 31.597656 C 17.601562 31.699219 18 31.199219 18.300781 30.800781 C 18.601562 30.398438 18.800781 30.199219 19.199219 29.5 C 19.601562 28.800781 20.300781 28.300781 20.300781 28.300781 C 19.5 28.898438 19.601562 30.199219 19.699219 30.398438 C 19.800781 30.5 20 30.699219 20.199219 31 C 20.398438 31.300781 21 31 21 31 C 20.601562 31.398438 21.101562 32.597656 21.398438 32.800781 C 21.699219 33 22.5 32.597656 23.101562 32.300781 C 23.800781 32 24.699219 31.199219 25.101562 30.898438 C 25.5 30.597656 26.398438 29.699219 26.398438 29.699219 C 25.800781 30.199219 26.199219 30.800781 26.5 31 C 26.800781 31.199219 27.398438 31 27.699219 31 C 28.101562 31 29.300781 30.597656 29.300781 30.597656 C 28.898438 30.898438 29.5 31.199219 29.898438 31.300781 C 30.300781 31.398438 31.898438 31.199219 32.300781 31.199219 C 32.601562 31.199219 34.101562 31.300781 34.101562 31.300781 C 32.601562 31.097656 31.601562 32.199219 31 32.800781 C 30.398438 33.398438 31.601562 33.699219 31.601562 33.699219 C 30.800781 33.597656 29.800781 34.300781 29.699219 34.699219 C 29.601562 35.097656 31.699219 35.597656 31.699219 35.597656 C 31.199219 35.5 30.101562 35.800781 29.601562 35.898438 C 29.101562 36.097656 28.5 36.199219 27.800781 36.597656 C 27 37 26.699219 37.5 26.699219 37.898438 C 26.699219 38.300781 28.199219 39 28.898438 39.199219 C 29.601562 39.5 30.101562 39.5 30.101562 39.5 C 29 39.699219 30.101562 40.898438 30.300781 41.097656 C 30.5 41.199219 31.101562 42 31.699219 42.5 C 32.300781 43 33.5 43.898438 33.5 43.898438 C 33.199219 43.800781 32.300781 43.597656 31.898438 43.5 C 31.5 43.398438 30.699219 43.300781 29.898438 43.5 C 29.101562 43.699219 29.699219 44.597656 29.699219 44.597656 C 29 44 28.101562 44.097656 27.601562 44.300781 C 27.101562 44.5 28.101562 46.398438 28.101562 46.398438 L 27.898438 46.097656 L 28 46.398438 L 27.800781 46.097656 C 27.601562 45.199219 26.398438 44.800781 26 44.699219 Z M 61.398438 68.898438 C 61.199219 62 54.699219 55.800781 46 54.597656 C 37.199219 53.398438 29.101562 57.597656 26.800781 64.097656 C 26.800781 63.398438 26.800781 62.699219 26.898438 62 C 28 55.300781 34.699219 50.5 42.800781 50.199219 L 44.601562 41.898438 C 43.5 41.097656 42.898438 40 43.101562 38.898438 C 43.300781 37.597656 44.601562 36.597656 46.199219 36.199219 L 47.300781 30.398438 C 47.300781 30.199219 47.601562 29.597656 48.300781 29.300781 L 48.699219 26.898438 C 48.800781 26.601562 49.101562 26 50 25.898438 C 50.699219 21.398438 52.101562 12.800781 52.101562 12.800781 C 52.199219 12.398438 52.300781 12.101562 52.699219 12.101562 C 53.101562 12.199219 53.101562 12.5 53.101562 12.898438 C 53.101562 12.898438 51.800781 21.5 51.101562 26 C 51.898438 26.300781 52.101562 27 52 27.300781 L 51.699219 29.699219 C 52.199219 30.199219 52.300781 30.800781 52.300781 31 C 52.300781 31 51.898438 33.699219 51.5 36.898438 C 53 37.699219 53.898438 39 53.699219 40.300781 C 53.5 41.398438 52.601562 42.199219 51.398438 42.699219 L 50.5 51.199219 C 55.898438 53 59.898438 56.699219 61.5 61.097656 L 61.5 0.199219 L 0 28.601562 L 15 128.898438 L 21.800781 126.398438 L 33.800781 80.5 C 28.800781 77.597656 25.898438 72.898438 26.699219 68 C 27.800781 60.898438 36.300781 56.199219 45.601562 57.5 C 54.898438 58.800781 61.5 65.597656 60.398438 72.597656 C 59.601562 77.5 55.300781 81.199219 49.699219 82.699219 L 47.699219 117.101562 L 61.5 112.101562 L 61.5 68.898438 L 61.398438 68.898438 "/>
<path style=" stroke:none;fill-rule:nonzero;fill:rgb(100%,100%,100%);fill-opacity:1;" d="M 50.699219 40.898438 L 49 38.898438 L 48.5 38.300781 L 46.601562 50.300781 L 46.699219 50.300781 C 47.699219 50.398438 48.699219 50.699219 49.601562 50.898438 L 50.699219 40.898438 "/>
<path style=" stroke:none;fill-rule:nonzero;fill:rgb(100%,100%,100%);fill-opacity:1;" d="M 58.199219 73.5 C 59.101562 67.5 53.300781 61.800781 45.101562 60.699219 C 36.898438 59.597656 29.5 63.5 28.5 69.5 C 27.898438 73.398438 30.101562 77.097656 34 79.597656 L 34.398438 78 C 31.699219 75.898438 30.199219 72.898438 30.601562 69.898438 C 31.398438 64.699219 37.699219 61.300781 44.699219 62.300781 C 51.699219 63.300781 56.601562 68.199219 55.800781 73.398438 C 55.300781 76.398438 53 78.800781 49.699219 80.097656 L 49.601562 81.800781 C 54.199219 80.398438 57.5 77.398438 58.199219 73.5 "/>
<path style=" stroke:none;fill-rule:nonzero;fill:rgb(100%,100%,100%);fill-opacity:1;" d="M 40.898438 82.199219 L 41.101562 80.800781 L 40.898438 82.199219 "/>
<path style=" stroke:none;fill-rule:nonzero;fill:rgb(100%,100%,100%);fill-opacity:1;" d="M 54.398438 72.199219 C 55.101562 67.898438 50.699219 63.800781 44.601562 62.898438 C 38.5 62.097656 33.101562 64.898438 32.398438 69.097656 C 32 71.398438 33.101562 73.597656 35.101562 75.300781 L 35.5 73.699219 C 34.898438 73.097656 34.398438 72.5 34 71.800781 L 32.699219 71.199219 L 32.601562 70.300781 L 33.601562 70.898438 C 33.398438 70.199219 33.300781 69.5 33.5 68.898438 C 33.601562 68.300781 33.800781 67.699219 34.101562 67.199219 L 34 67.097656 L 34.5 66.5 L 34.601562 66.597656 C 35.398438 65.597656 36.601562 64.800781 38 64.300781 L 37.898438 64 L 38.601562 63.699219 L 38.699219 64 C 40 63.597656 41.398438 63.398438 42.800781 63.5 L 42.800781 63 L 43.601562 63 L 43.601562 63.5 C 43.898438 63.5 44.199219 63.597656 44.5 63.597656 C 45.398438 63.699219 46.300781 63.898438 47.199219 64.199219 L 47.300781 63.898438 L 48.398438 64.097656 L 48.199219 64.597656 C 49.199219 65 50 65.5 50.800781 66.097656 L 50.898438 66 L 52.398438 67.199219 L 52.199219 67.398438 C 52.800781 68.097656 53.199219 68.800781 53.398438 69.597656 L 53.699219 69.597656 L 53.898438 71.398438 L 53.601562 71.5 L 53.601562 71.597656 C 53.5 72.300781 53.199219 73 52.800781 73.597656 L 53.199219 73.699219 L 52.601562 75.597656 L 50.101562 75.898438 L 50 77.5 C 52.398438 76.300781 54.101562 74.398438 54.398438 72.199219 "/>
<path style=" stroke:none;fill-rule:nonzero;fill:rgb(100%,100%,100%);fill-opacity:1;" d="M 41.5 78.300781 L 41.800781 76.699219 L 41.5 78.300781 "/>
<path style=" stroke:none;fill-rule:nonzero;fill:rgb(100%,100%,100%);fill-opacity:1;" d="M 39.800781 67.398438 L 40.199219 68.597656 L 40.5 67.199219 L 40.5 67 L 39.800781 67.398438 "/>
<path style=" stroke:none;fill-rule:nonzero;fill:rgb(100%,100%,100%);fill-opacity:1;" d="M 40.199219 68.597656 L 39.699219 69 L 39.199219 67.699219 L 26.601562 124.699219 L 29.300781 123.800781 L 40.199219 68.597656 "/>
<path style=" stroke:none;fill-rule:nonzero;fill:rgb(100%,100%,100%);fill-opacity:1;" d="M 53.199219 73.597656 L 52.800781 73.5 L 51.5 73.300781 L 50.199219 73.699219 L 50.101562 75.800781 L 52.601562 75.5 L 53.199219 73.597656 "/>
<path style=" stroke:none;fill-rule:nonzero;fill:rgb(100%,100%,100%);fill-opacity:1;" d="M 48.5 70.699219 L 48.300781 71 L 48.398438 70 L 46.300781 68.300781 L 46.199219 68.597656 L 46.199219 68.199219 L 44.800781 67 L 43.601562 66.097656 L 43.601562 68.597656 L 43.101562 68.699219 L 43.101562 68.5 L 41.800781 76.699219 L 41.5 78.300781 L 41.101562 80.800781 L 40.898438 82.199219 L 40.800781 83.097656 L 34.601562 121.800781 L 45.101562 118.101562 L 48.5 70.699219 "/>
<path style=" stroke:none;fill-rule:nonzero;fill:rgb(100%,100%,100%);fill-opacity:1;" d="M 48.300781 64.597656 L 48.5 64.097656 L 47.398438 63.898438 L 47.199219 64.199219 L 46.699219 65.300781 L 46.398438 67.300781 L 46.199219 68.199219 L 46.199219 68.597656 L 46.300781 68.300781 L 46.699219 67.597656 L 48.300781 64.597656 "/>
<path style=" stroke:none;fill-rule:nonzero;fill:rgb(100%,100%,100%);fill-opacity:1;" d="M 52.5 67.097656 L 50.898438 66 L 50.800781 66 L 48.800781 67.398438 L 48.601562 69 L 48.398438 70 L 48.300781 71 L 48.5 70.699219 L 49.601562 69.800781 L 52.199219 67.300781 L 52.5 67.097656 "/>
<path style=" stroke:none;fill-rule:nonzero;fill:rgb(100%,100%,100%);fill-opacity:1;" d="M 53.898438 71.300781 L 53.699219 69.5 L 53.5 69.5 L 50.601562 69.597656 L 50.101562 70.199219 L 49.699219 70.597656 L 49.398438 73.398438 L 50.199219 73 L 53.601562 71.5 L 53.898438 71.300781 "/>
<path style=" stroke:none;fill-rule:nonzero;fill:rgb(100%,100%,100%);fill-opacity:1;" d="M 43.601562 62.898438 L 42.800781 62.898438 L 42.800781 63.398438 L 43 66.199219 L 43.101562 68.5 L 43.101562 68.699219 L 43.601562 68.597656 L 43.601562 62.898438 "/>
<path style=" stroke:none;fill-rule:nonzero;fill:rgb(100%,100%,100%);fill-opacity:1;" d="M 39.800781 67.398438 L 38.699219 63.898438 L 38.601562 63.597656 L 37.898438 63.898438 L 38 64.199219 L 39.199219 67.597656 L 39.199219 67.699219 L 39.699219 69 L 40.199219 68.597656 L 39.800781 67.398438 "/>
<path style=" stroke:none;fill-rule:nonzero;fill:rgb(100%,100%,100%);fill-opacity:1;" d="M 34.5 66.398438 L 34 67 L 34.101562 67.097656 L 36.601562 69.898438 L 37.800781 71.199219 L 37.898438 70.597656 L 36.800781 69.199219 L 34.601562 66.5 L 34.5 66.398438 "/>
<path style=" stroke:none;fill-rule:nonzero;fill:rgb(100%,100%,100%);fill-opacity:1;" d="M 32.699219 70.300781 L 32.699219 71.199219 L 34.101562 71.898438 L 35.800781 72.800781 L 36.601562 73.199219 L 36.699219 72.597656 L 36 72.199219 L 33.601562 70.800781 L 32.699219 70.300781 "/>
<path style=" stroke:none;fill-rule:nonzero;fill:rgb(100%,100%,100%);fill-opacity:1;" d="M 174.617188 74.402344 L 178.484375 74.402344 L 178.484375 66.84375 L 178.433594 66.84375 L 174.617188 74.402344 "/>
<path style=" stroke:none;fill-rule:nonzero;fill:rgb(100%,100%,100%);fill-opacity:1;" d="M 152.910156 68.605469 C 152.824219 68.101562 152.707031 67.601562 152.5625 67.105469 C 152.417969 66.609375 152.234375 66.164062 152.011719 65.769531 C 151.785156 65.375 151.519531 65.058594 151.207031 64.8125 C 150.894531 64.570312 150.53125 64.449219 150.113281 64.449219 C 149.699219 64.449219 149.335938 64.570312 149.023438 64.8125 C 148.710938 65.058594 148.441406 65.375 148.21875 65.769531 C 147.992188 66.164062 147.8125 66.609375 147.667969 67.105469 C 147.523438 67.601562 147.40625 68.101562 147.320312 68.605469 C 147.230469 69.109375 147.171875 69.589844 147.140625 70.042969 C 147.105469 70.496094 147.089844 70.882812 147.089844 71.203125 C 147.089844 71.519531 147.105469 71.90625 147.140625 72.359375 C 147.171875 72.8125 147.230469 73.292969 147.320312 73.796875 C 147.40625 74.300781 147.523438 74.804688 147.667969 75.308594 C 147.8125 75.8125 147.992188 76.261719 148.21875 76.65625 C 148.441406 77.050781 148.710938 77.375 149.023438 77.628906 C 149.335938 77.878906 149.699219 78.003906 150.113281 78.003906 C 150.53125 78.003906 150.894531 77.878906 151.207031 77.628906 C 151.519531 77.375 151.785156 77.050781 152.011719 76.65625 C 152.234375 76.261719 152.417969 75.8125 152.5625 75.308594 C 152.707031 74.804688 152.824219 74.300781 152.910156 73.796875 C 152.996094 73.292969 153.058594 72.8125 153.089844 72.359375 C 153.121094 71.90625 153.140625 71.519531 153.140625 71.203125 C 153.140625 70.882812 153.121094 70.496094 153.089844 70.042969 C 153.058594 69.589844 152.996094 69.109375 152.910156 68.605469 "/>
<path style=" stroke:none;fill-rule:nonzero;fill:rgb(100%,100%,100%);fill-opacity:1;" d="M 183.714844 77.375 L 181.792969 77.375 L 181.792969 80.726562 L 178.484375 80.726562 L 178.484375 77.375 L 170.515625 77.375 L 170.515625 75.710938 L 178.578125 61.375 L 181.792969 61.375 L 181.792969 74.402344 L 183.714844 74.402344 Z M 169.433594 80.726562 L 157.242188 80.726562 L 161.851562 74.628906 C 162.171875 74.207031 162.554688 73.703125 163.003906 73.117188 C 163.449219 72.527344 163.882812 71.90625 164.296875 71.25 C 164.714844 70.597656 165.066406 69.945312 165.355469 69.300781 C 165.644531 68.652344 165.785156 68.058594 165.785156 67.523438 C 165.785156 67.1875 165.734375 66.839844 165.628906 66.476562 C 165.527344 66.117188 165.375 65.785156 165.175781 65.480469 C 164.972656 65.179688 164.730469 64.929688 164.441406 64.738281 C 164.15625 64.542969 163.824219 64.449219 163.457031 64.449219 C 163.058594 64.449219 162.714844 64.546875 162.425781 64.75 C 162.140625 64.953125 161.902344 65.210938 161.71875 65.53125 C 161.535156 65.851562 161.402344 66.203125 161.324219 66.589844 C 161.242188 66.976562 161.210938 67.347656 161.226562 67.699219 L 157.484375 67.699219 C 157.546875 66.792969 157.71875 65.941406 157.996094 65.152344 C 158.277344 64.363281 158.664062 63.679688 159.160156 63.101562 C 159.65625 62.519531 160.261719 62.0625 160.976562 61.726562 C 161.6875 61.390625 162.507812 61.222656 163.433594 61.222656 C 164.265625 61.222656 165.039062 61.378906 165.75 61.6875 C 166.460938 62 167.082031 62.429688 167.609375 62.972656 C 168.140625 63.519531 168.554688 64.167969 168.859375 64.914062 C 169.160156 65.660156 169.316406 66.472656 169.316406 67.347656 C 169.316406 68.050781 169.226562 68.710938 169.050781 69.324219 C 168.875 69.9375 168.644531 70.523438 168.355469 71.089844 C 168.066406 71.652344 167.734375 72.191406 167.359375 72.714844 C 166.984375 73.234375 166.585938 73.746094 166.171875 74.25 L 163.507812 77.5 L 169.433594 77.5 Z M 156.449219 73.394531 C 156.355469 74.148438 156.199219 74.898438 155.984375 75.636719 C 155.765625 76.375 155.492188 77.085938 155.15625 77.765625 C 154.820312 78.445312 154.410156 79.042969 153.929688 79.554688 C 153.449219 80.066406 152.894531 80.476562 152.261719 80.777344 C 151.632812 81.078125 150.914062 81.230469 150.113281 81.230469 C 149.316406 81.230469 148.597656 81.078125 147.96875 80.777344 C 147.335938 80.476562 146.777344 80.066406 146.300781 79.554688 C 145.820312 79.042969 145.410156 78.445312 145.074219 77.765625 C 144.738281 77.085938 144.464844 76.375 144.246094 75.636719 C 144.03125 74.898438 143.875 74.148438 143.777344 73.394531 C 143.683594 72.636719 143.636719 71.925781 143.636719 71.25 C 143.636719 70.226562 143.746094 69.132812 143.972656 67.964844 C 144.195312 66.796875 144.558594 65.710938 145.0625 64.710938 C 145.566406 63.714844 146.230469 62.882812 147.054688 62.21875 C 147.878906 61.554688 148.898438 61.222656 150.113281 61.222656 C 151.328125 61.222656 152.351562 61.554688 153.175781 62.21875 C 154 62.882812 154.664062 63.714844 155.167969 64.710938 C 155.671875 65.710938 156.035156 66.796875 156.257812 67.964844 C 156.484375 69.132812 156.59375 70.226562 156.59375 71.25 C 156.59375 71.925781 156.546875 72.636719 156.449219 73.394531 Z M 141.691406 80.726562 L 129.496094 80.726562 L 134.105469 74.628906 C 134.425781 74.207031 134.8125 73.703125 135.257812 73.117188 C 135.707031 72.527344 136.136719 71.90625 136.554688 71.25 C 136.972656 70.597656 137.324219 69.945312 137.609375 69.300781 C 137.898438 68.652344 138.042969 68.058594 138.042969 67.523438 C 138.042969 67.1875 137.992188 66.839844 137.886719 66.476562 C 137.78125 66.117188 137.628906 65.785156 137.429688 65.480469 C 137.230469 65.179688 136.988281 64.929688 136.699219 64.738281 C 136.410156 64.542969 136.082031 64.449219 135.714844 64.449219 C 135.316406 64.449219 134.972656 64.546875 134.683594 64.75 C 134.394531 64.953125 134.15625 65.210938 133.976562 65.53125 C 133.789062 65.851562 133.65625 66.203125 133.578125 66.589844 C 133.496094 66.976562 133.464844 67.347656 133.484375 67.699219 L 129.738281 67.699219 C 129.800781 66.792969 129.976562 65.941406 130.253906 65.152344 C 130.535156 64.363281 130.921875 63.679688 131.417969 63.101562 C 131.914062 62.519531 132.519531 62.0625 133.230469 61.726562 C 133.941406 61.390625 134.761719 61.222656 135.691406 61.222656 C 136.523438 61.222656 137.292969 61.378906 138.007812 61.6875 C 138.71875 62 139.339844 62.429688 139.867188 62.972656 C 140.394531 63.519531 140.808594 64.167969 141.113281 64.914062 C 141.417969 65.660156 141.570312 66.472656 141.570312 67.347656 C 141.570312 68.050781 141.484375 68.710938 141.308594 69.324219 C 141.128906 69.9375 140.898438 70.523438 140.609375 71.089844 C 140.324219 71.652344 139.992188 72.191406 139.613281 72.714844 C 139.238281 73.234375 138.84375 73.746094 138.425781 74.25 L 135.761719 77.5 L 141.691406 77.5 Z M 125.519531 59.113281 L 125.519531 82.773438 L 187.121094 82.773438 L 187.121094 59.113281 L 125.519531 59.113281 "/>
</g>
</svg>
