<svg viewBox="0 0 192 129" xmlns="http://www.w3.org/2000/svg"><g id="Navigation-and-v3" stroke="none" stroke-width="1" fill="none" fill-rule="evenodd"><g id="TCHC-Mockups-Header-+-footer-updates?" transform="translate(-96 -86)"><g id="Group" transform="translate(96 86)"><path id="Fill-115-Copy" fill="#FF743A" d="M114.615 0v87.04l24.249 10.715V44.07l28.215 12.613-16.959 19.139V129l16.753-18.832L192 121.285V34.256z"/><g id="Toronto-Community-Ho" transform="translate(0 35.522)" fill="#2A2728" fill-rule="nonzero"><path id="Path" d="M9.267 0H0v1.858h3.386V13.39H5.61V1.858h3.367z"/><path d="M18.063 8.533c0-3.096-1.587-5.166-4.372-5.166-2.593 0-4.276 2.012-4.276 5.147 0 3.135 1.664 5.128 4.314 5.128 2.65 0 4.334-1.955 4.334-5.109Zm-2.341.04c0 2.457-.696 3.482-1.954 3.482-1.277 0-1.993-.832-1.993-3.676 0-2.38.58-3.406 1.935-3.406 1.238 0 2.012.832 2.012 3.6Z" id="Shape"/><path d="M26.22 3.483a1.599 1.599 0 0 0-.754-.155c-.948 0-1.722.503-2.496 1.568 0-.542-.135-1.103-.367-1.548l-1.954.503c.213.6.348 1.393.348 2.631v6.908h2.128V6.772c.194-.793.948-1.45 1.838-1.45.232 0 .387.057.6.135l.658-1.974Z" id="Path"/><path d="M35.771 8.533c0-3.096-1.586-5.166-4.372-5.166-2.593 0-4.276 2.012-4.276 5.147 0 3.135 1.664 5.128 4.315 5.128 2.65 0 4.333-1.955 4.333-5.109Zm-2.34.04c0 2.457-.697 3.482-1.955 3.482-1.277 0-1.992-.832-1.992-3.676 0-2.38.58-3.406 1.934-3.406 1.238 0 2.012.832 2.012 3.6Z" id="Shape"/><path d="M46.173 13.39V6.076c0-1.8-1.045-2.71-2.554-2.71-1.045 0-1.954.465-2.998 1.355 0-.522-.117-.948-.349-1.393l-1.934.542c.27.697.367 1.296.367 2.322v7.198h2.09V6.29c.638-.639 1.528-1.103 2.147-1.103.813 0 1.122.367 1.122 1.703v6.501h2.109ZM54.253 13.216l-.27-1.277c-.368.135-.62.193-.91.193-.929 0-1.2-.348-1.2-1.567V5.07h1.8l.56-1.47h-2.34c0-.968.077-2.149.174-2.942l-2.186.522c-.097.736-.097 1.587-.097 2.42h-1.083v1.47h1.083v6.056c0 1.393.658 2.516 2.554 2.516.658 0 1.277-.136 1.915-.426Z" id="Path"/><path d="M64.461 8.533c0-3.096-1.586-5.166-4.372-5.166-2.592 0-4.275 2.012-4.275 5.147 0 3.135 1.663 5.128 4.314 5.128 2.65 0 4.333-1.955 4.333-5.109Zm-2.34.04c0 2.457-.697 3.482-1.954 3.482-1.277 0-1.993-.832-1.993-3.676 0-2.38.58-3.406 1.935-3.406 1.238 0 2.012.832 2.012 3.6Z" id="Shape"/><path d="m10.099 33.385-1.045-1.412c-.754.6-1.451.851-2.399.851-1.296 0-2.399-.62-2.98-1.896-.347-.755-.522-1.684-.522-3.328 0-1.587.233-2.71.697-3.522.58-1.026 1.528-1.606 2.67-1.606.832 0 1.567.232 2.283.754l1.025-1.47c-.793-.658-2.031-1.045-3.328-1.045-2.09 0-3.927 1.16-4.933 3.077-.6 1.122-.89 2.457-.89 4.063 0 1.935.522 3.56 1.528 4.78 1.045 1.257 2.457 1.935 4.237 1.935 1.432 0 2.612-.387 3.657-1.18Z" id="Path"/><path d="M20.017 29.496c0-3.096-1.587-5.167-4.372-5.167-2.593 0-4.276 2.013-4.276 5.148 0 3.134 1.664 5.127 4.314 5.127 2.65 0 4.334-1.954 4.334-5.108Zm-2.341.039c0 2.457-.697 3.483-1.954 3.483-1.277 0-1.993-.833-1.993-3.677 0-2.38.58-3.406 1.935-3.406 1.238 0 2.012.832 2.012 3.6Z" id="Shape"/><path d="M35.294 34.353v-7.16c0-2.032-.948-2.864-2.554-2.864-1.045 0-1.973.465-2.921 1.432-.716-1.141-1.47-1.432-2.341-1.432-.91 0-1.819.445-2.592 1.239-.04-.542-.155-.948-.349-1.258l-1.934.542c.232.522.348 1.258.348 2.477v7.024h2.07v-7.257c.716-.657 1.412-.967 2.012-.967.813 0 1.064.368 1.064 1.51v6.714h2.031v-7.121c.678-.639 1.355-1.122 2.07-1.122.755 0 1.006.329 1.006 1.47v6.773h2.09ZM51.248 34.353v-7.16c0-2.032-.948-2.864-2.554-2.864-1.044 0-1.973.465-2.921 1.432-.716-1.141-1.47-1.432-2.34-1.432-.91 0-1.82.445-2.593 1.239-.039-.542-.155-.948-.348-1.258l-1.935.542c.232.522.348 1.258.348 2.477v7.024h2.07v-7.257c.716-.657 1.412-.967 2.012-.967.813 0 1.064.368 1.064 1.51v6.714h2.032v-7.121c.677-.639 1.354-1.122 2.07-1.122.754 0 1.006.329 1.006 1.47v6.773h2.089ZM62.85 33.656c-.117-.097-.6-.638-.6-1.954v-7.373l-2.051.387v7.005c-.329.697-1.2 1.277-1.915 1.277-1.258 0-1.432-.89-1.432-2.109v-6.56l-2.09.387v6.637c0 1.22.155 1.858.542 2.322.484.581 1.335.968 2.438.968 1.122 0 2.07-.387 2.786-1.2.174.561.425.91.851 1.22l1.47-1.007ZM73.135 34.353v-7.315c0-1.8-1.045-2.709-2.554-2.709-1.044 0-1.954.465-2.998 1.355 0-.523-.116-.948-.349-1.393l-1.934.541c.27.697.367 1.297.367 2.322v7.199h2.09V27.25c.638-.638 1.528-1.103 2.147-1.103.813 0 1.122.368 1.122 1.703v6.502h2.109Z" id="Path"/><path d="M78.894 34.353V24.329l-2.148.387v9.637h2.148Zm.348-12.655c0-.813-.639-1.432-1.393-1.432-.793 0-1.412.638-1.412 1.432 0 .774.6 1.412 1.373 1.412.793 0 1.432-.638 1.432-1.412Z" id="Shape"/><path d="m86.974 34.179-.27-1.278c-.368.136-.62.194-.91.194-.929 0-1.2-.348-1.2-1.567v-5.496h1.8l.56-1.47h-2.34c0-.968.077-2.148.174-2.942l-2.186.523c-.097.735-.097 1.587-.097 2.419h-1.083v1.47h1.083v6.057c0 1.393.658 2.515 2.554 2.515.657 0 1.277-.135 1.915-.425ZM97.124 24.562h-2.283l-1.625 5.301c-.367 1.18-.716 2.574-.735 2.651-.039-.154-.367-1.625-.542-2.205l-1.799-5.96-2.167.367 2.225 6.599c.29.87.658 1.935.929 3.038h.677c-.561 1.877-1.316 2.438-2.65 2.805l.696 1.374c2.302-.425 2.999-1.606 3.811-3.966l3.463-10.004ZM10.273 55.315v-13.39H8.029v5.379H3.463v-5.379H1.258v13.39h2.205v-6.192h4.566v6.192z" id="Path"/><path d="M21.855 50.458c0-3.096-1.587-5.166-4.373-5.166-2.592 0-4.275 2.012-4.275 5.147 0 3.135 1.664 5.128 4.314 5.128 2.65 0 4.334-1.955 4.334-5.109Zm-2.341.04c0 2.457-.697 3.482-1.954 3.482-1.277 0-1.993-.832-1.993-3.676 0-2.38.58-3.406 1.935-3.406 1.238 0 2.012.832 2.012 3.599Z" id="Shape"/><path d="M32.779 54.619c-.116-.097-.6-.639-.6-1.955v-7.372l-2.05.387v7.005c-.33.696-1.2 1.277-1.916 1.277-1.257 0-1.431-.89-1.431-2.11v-6.56l-2.09.388v6.637c0 1.219.155 1.858.542 2.322.484.58 1.335.967 2.437.967 1.123 0 2.07-.387 2.786-1.2.174.562.426.91.852 1.22l1.47-1.006ZM42.542 52.258c0-1.142-.522-2.225-2.495-2.728l-1.22-.31c-.986-.252-1.315-.561-1.315-1.161 0-.755.58-1.258 1.49-1.258.774 0 1.49.232 2.399.716l.696-1.47c-.832-.445-1.896-.852-3.23-.852-2.167 0-3.638 1.277-3.638 3.115 0 1.374.871 2.38 2.341 2.69l1.18.252c1.103.232 1.587.619 1.587 1.374 0 .812-.658 1.373-1.587 1.373-1.102 0-2.302-.522-3.172-1.025l-.755 1.529c1.258.696 2.554 1.083 3.753 1.083 2.36 0 3.966-1.354 3.966-3.328Z" id="Path"/><path d="M47.334 55.315V45.292l-2.148.387v9.636h2.148Zm.348-12.655c0-.812-.639-1.432-1.393-1.432-.793 0-1.412.639-1.412 1.432 0 .774.6 1.413 1.373 1.413.793 0 1.432-.639 1.432-1.413Z" id="Shape"/><path d="M58.413 55.315v-7.314c0-1.8-1.045-2.71-2.554-2.71-1.045 0-1.954.465-2.999 1.355 0-.522-.116-.948-.348-1.393l-1.935.542c.271.697.368 1.296.368 2.322v7.198h2.09v-7.101c.638-.639 1.528-1.103 2.147-1.103.812 0 1.122.367 1.122 1.703v6.501h2.109Z" id="Path"/><path d="m71.136 46.453-.987-1.335c-.541.445-1.141.677-1.78.677-.793 0-1.586-.503-2.979-.503-2.34 0-3.908 1.316-3.908 3.309 0 1.393.755 2.341 2.225 2.767-1.045.329-1.857.716-1.857 1.683 0 .968.58 1.49 3.211 1.49 1.819 0 2.709.29 2.709 1.355 0 .91-.813 1.528-2.322 1.528-1.373 0-2.147-.503-2.147-1.412 0-.271.116-.62.154-.697h-2.012c-.038.116-.193.639-.193 1.045 0 1.838 1.838 2.67 4.372 2.67 2.612 0 4.353-1.122 4.353-3.212 0-1.993-1.683-2.786-3.25-2.786-2.302 0-2.438-.039-2.438-.406 0-.31.62-.678 1.316-.93 2.302 0 3.714-1.296 3.714-2.998 0-1.007-.58-1.645-.638-1.703.058.02.348.096.754.096.658 0 1.161-.174 1.703-.638Zm-4.082 2.128c0 1.084-.58 1.664-1.683 1.664-1.045 0-1.683-.522-1.683-1.644 0-1.103.6-1.703 1.683-1.703 1.122 0 1.683.58 1.683 1.683Z" id="Shape"/></g></g></g></g></svg>